<svg width="2380" height="839" viewBox="0 0 2380 839" fill="none" xmlns="http://www.w3.org/2000/svg">
<rect width="2379.71" height="839" transform="translate(0.157593)" fill="white"/>
<g clip-path="url(#clip0_2_3)">
<path d="M1010.36 417.974C1011.62 445.979 1007.69 473.976 998.771 500.552C982.957 546.315 951.736 575.35 905.006 587.554C864.538 598.307 821.964 598.307 781.496 587.554C730.291 574.231 697.9 541.129 684.426 490.179C671.075 439.95 671.69 387.03 686.205 337.125C699.07 291.971 728.613 262.428 773.461 249.106C817.716 235.891 864.812 235.503 909.278 247.987C961.347 262.225 992.313 297.463 1003.25 349.684C1007.92 372.007 1007.47 391.737 1010.36 414.415V417.974ZM745.037 417.974C745.037 437.297 749.308 455.144 753.63 473.195C761.766 506.908 783.072 528.163 818.056 533.4C830.804 535.179 843.698 535.69 856.548 534.925C889.142 533.247 914.058 519.061 927.736 488.145C934.908 470.348 938.785 451.395 939.177 432.211C941.033 407.166 938.678 381.986 932.21 357.718C924.278 329.752 906.786 310.785 878.006 303.361C854.968 297.209 830.72 297.209 807.682 303.361C795.259 306.277 783.847 312.478 774.642 321.317C765.437 330.155 758.777 341.305 755.359 353.6C749.622 374.174 745.037 394.076 745.037 417.974Z" fill="#295092"/>
<path d="M2195.13 417.974C2196.39 445.979 2192.46 473.976 2183.54 500.552C2167.73 546.315 2136.51 575.35 2089.78 587.554C2049.31 598.307 2006.73 598.307 1966.27 587.554C1915.06 574.231 1882.67 541.129 1869.2 490.179C1855.84 439.95 1856.46 387.03 1870.98 337.125C1883.84 291.971 1913.38 262.428 1958.23 249.106C2002.49 235.891 2049.58 235.503 2094.05 247.987C2146.12 262.225 2177.08 297.463 2188.02 349.684C2192.69 372.007 2192.24 391.737 2195.13 414.415V417.974ZM1929.81 417.974C1929.81 437.297 1934.08 455.144 1938.4 473.195C1946.54 506.908 1967.84 528.163 2002.83 533.4C2015.57 535.179 2028.47 535.69 2041.32 534.925C2073.91 533.247 2098.83 519.061 2112.51 488.145C2119.68 470.348 2123.55 451.395 2123.95 432.211C2125.8 407.166 2123.45 381.986 2116.98 357.718C2109.05 329.752 2091.56 310.785 2062.78 303.361C2039.74 297.209 2015.49 297.209 1992.45 303.361C1980.03 306.277 1968.62 312.478 1959.41 321.317C1950.21 330.155 1943.55 341.305 1940.13 353.6C1934.39 374.174 1929.81 394.076 1929.81 417.974Z" fill="#295092"/>
<path d="M377.453 254.395C409.945 254.395 442.539 252.615 474.828 254.801C523.541 258.157 567.677 274.378 601.949 311.345C618.984 329.854 626.357 353.142 630.221 377.448C635.729 414.01 634.211 451.288 625.747 487.281C614.967 535.078 586.593 565.943 541.033 582.52C513.865 592.256 485.177 597.061 456.319 596.707C454.133 596.707 449.963 593.859 449.963 592.283C449.963 568.553 450.37 544.824 451.184 521.095C451.258 517.266 452.664 513.582 455.161 510.677C457.657 507.773 461.087 505.829 464.862 505.179C471.431 503.018 478.287 501.852 485.201 501.722C525.066 503.095 541.135 479.196 546.219 447.822C548.369 434.272 548.898 420.514 547.796 406.838C546.321 387.923 535.897 372.566 522.931 359.397C511.956 348.104 498.802 339.157 484.266 333.1C469.731 327.043 454.116 324.001 438.37 324.159C415.081 323.904 391.843 324.159 368.606 324.159C357.419 324.159 352.131 328.176 351.673 339.413C350.809 359.193 350.504 379.024 351.063 398.804C351.419 411.008 357.826 415.686 370.182 416.042C380.178 415.826 390.176 416.404 400.081 417.771C411.823 420.165 422.447 426.366 430.308 435.412C438.168 444.458 442.824 455.844 443.556 467.806C444.268 479.094 438.471 485.603 426.471 485.755C406.132 485.755 386.301 485.755 366.216 485.755C360.521 485.755 359.046 483.467 358.995 478.179C358.995 462.924 358.639 447.67 357.877 432.415C357.114 417.161 348.571 401.652 327.368 403.177C315.774 403.991 304.13 403.177 292.486 403.177C287.045 403.177 285.062 401.398 285.112 395.855C285.112 353.6 285.112 311.345 285.112 269.09C285.112 258.361 289.994 252.513 304.892 252.513C329.198 252.513 349.588 254.395 373.894 254.395H377.453Z" fill="#295092"/>
<path d="M1362.74 245.446C1366.25 245.446 1368.49 244.887 1370.78 244.887C1389.8 244.887 1408.81 244.887 1427.83 244.887C1430.14 244.492 1432.51 245.001 1434.45 246.308C1436.39 247.614 1437.75 249.618 1438.25 251.904C1468.05 335.092 1498 418.144 1528.1 501.061C1529.12 503.96 1530.49 506.655 1532.63 511.231C1534.56 507.011 1535.73 504.773 1536.6 502.485C1566.29 420.653 1595.97 338.804 1625.63 256.938C1630.16 244.582 1630.05 244.531 1643.43 244.531H1703.18C1699.92 253.48 1697.17 261.362 1694.23 269.192C1654.56 373.228 1614.95 477.281 1575.39 581.351C1574.86 583.763 1573.47 585.899 1571.47 587.358C1569.48 588.818 1567.02 589.502 1564.56 589.283C1543.71 588.928 1522.82 588.978 1501.97 589.283C1499.5 589.548 1497.03 588.903 1495 587.47C1492.98 586.038 1491.55 583.916 1490.98 581.504C1452.37 479.807 1413.66 378.245 1374.85 276.82L1362.74 245.446Z" fill="#295092"/>
<path d="M1334.63 315.26C1317.39 310.938 1301.78 306.158 1285.81 303.107C1255.8 296.697 1224.74 296.958 1194.84 303.87C1165.86 311.192 1145.16 328.684 1135.66 357.007C1121.76 395.291 1121.42 437.182 1134.69 475.687C1148.11 513.671 1178.16 530.451 1216.05 534.926C1255.06 539.267 1294.55 534.301 1331.27 520.434C1332.24 520.129 1333.25 519.976 1335.18 519.569C1335.18 522.163 1335.85 524.349 1335.85 526.536C1335.85 541.333 1335.54 556.129 1335.85 570.926C1336.1 577.74 1333.91 581.401 1327.25 582.52C1304.68 586.333 1282.25 590.707 1259.57 593.91C1232.57 597.396 1205.16 595.966 1178.67 589.689C1113.28 575.147 1073.16 534.722 1059.38 469.229C1050.14 427.536 1052.36 384.12 1065.79 343.583C1085.06 286.022 1126.25 253.378 1185.39 243.564C1231.9 235.915 1279.54 239.028 1324.66 252.666C1331.88 254.801 1334.83 257.751 1334.83 265.886C1334.37 282.107 1334.63 298.48 1334.63 315.26Z" fill="#295092"/>
<path d="M1813.41 417.262V578.91C1813.41 589.435 1813.41 589.435 1802.84 589.486C1785.91 589.486 1769.02 589.486 1751.99 589.486C1745.79 589.486 1742.99 588.062 1742.99 581.147C1743.19 471.518 1743.19 361.905 1742.99 252.31C1742.99 246.31 1744.92 244.581 1750.77 244.683C1768.16 244.988 1785.65 245.14 1803.04 244.683C1810.92 244.683 1813.21 246.615 1813.21 254.852C1813.21 308.955 1813.41 363.109 1813.41 417.262Z" fill="#295092"/>
<path d="M345.114 506.858C345.114 530.096 345.114 553.333 345.114 576.571C345.266 579.476 344.808 582.381 343.77 585.099C342.732 587.816 341.137 590.286 339.087 592.35C337.038 594.415 334.578 596.027 331.868 597.084C329.158 598.141 326.257 598.619 323.351 598.487C315.164 598.487 306.977 598.487 298.791 598.487C296.071 598.675 293.343 598.278 290.79 597.322C288.237 596.367 285.918 594.875 283.991 592.947C282.063 591.02 280.571 588.701 279.616 586.148C278.66 583.595 278.263 580.867 278.451 578.148C278.451 555.978 278.451 533.757 278.451 511.587C278.451 496.027 272.909 490.536 257.603 490.536C235.434 490.536 213.264 490.536 191.043 490.536C185.195 490.536 183.161 488.705 183.263 482.807C183.619 466.688 183.263 450.569 183.263 434.45C183.263 421.483 189.263 415.839 202.28 415.839H325.893C339.419 415.839 344.809 420.924 344.91 435.263C344.91 459.06 344.91 482.807 344.91 506.451L345.114 506.858Z" fill="#295092"/>
</g>
<defs>
<clipPath id="clip0_2_3">
<rect width="2014.06" height="359.6" fill="white" transform="translate(183.212 238.988)"/>
</clipPath>
</defs>
</svg>
