<svg width="2380" height="839" viewBox="0 0 2380 839" fill="none" xmlns="http://www.w3.org/2000/svg">
<rect width="2379.71" height="839" fill="transparent"/>
<g clip-path="url(#clip0_2_2)">
<path d="M1010.21 417.974C1011.47 445.979 1007.54 473.976 998.614 500.552C982.8 546.315 951.579 575.35 904.849 587.554C864.381 598.307 821.806 598.307 781.338 587.554C730.134 574.231 697.743 541.129 684.268 490.179C670.918 439.95 671.533 387.03 686.048 337.125C698.913 291.971 728.456 262.428 773.304 249.106C817.558 235.891 864.654 235.503 909.12 247.987C961.189 262.225 992.156 297.463 1003.09 349.684C1007.77 372.007 1007.31 391.737 1010.21 414.415V417.974ZM744.88 417.974C744.88 437.297 749.151 455.144 753.473 473.195C761.609 506.908 782.914 528.163 817.898 533.4C830.647 535.179 843.541 535.69 856.391 534.925C888.984 533.247 913.9 519.061 927.578 488.145C934.751 470.348 938.627 451.395 939.019 432.211C940.876 407.166 938.521 381.986 932.053 357.718C924.12 329.752 906.629 310.785 877.848 303.361C854.811 297.209 830.562 297.209 807.525 303.361C795.101 306.277 783.69 312.478 774.485 321.317C765.28 330.155 758.62 341.305 755.202 353.6C749.464 374.174 744.88 394.076 744.88 417.974Z" fill="white"/>
<path d="M2194.98 417.974C2196.24 445.979 2192.31 473.976 2183.38 500.552C2167.57 546.315 2136.35 575.35 2089.62 587.554C2049.15 598.307 2006.58 598.307 1966.11 587.554C1914.9 574.231 1882.51 541.129 1869.04 490.179C1855.69 439.95 1856.3 387.03 1870.82 337.125C1883.68 291.971 1913.23 262.428 1958.07 249.106C2002.33 235.891 2049.42 235.503 2093.89 247.987C2145.96 262.225 2176.93 297.463 2187.86 349.684C2192.54 372.007 2192.08 391.737 2194.98 414.415V417.974ZM1929.65 417.974C1929.65 437.297 1933.92 455.144 1938.24 473.195C1946.38 506.908 1967.68 528.163 2002.67 533.4C2015.42 535.179 2028.31 535.69 2041.16 534.925C2073.75 533.247 2098.67 519.061 2112.35 488.145C2119.52 470.348 2123.4 451.395 2123.79 432.211C2125.65 407.166 2123.29 381.986 2116.82 357.718C2108.89 329.752 2091.4 310.785 2062.62 303.361C2039.58 297.209 2015.33 297.209 1992.29 303.361C1979.87 306.277 1968.46 312.478 1959.25 321.317C1950.05 330.155 1943.39 341.305 1939.97 353.6C1934.23 374.174 1929.65 394.076 1929.65 417.974Z" fill="white"/>
<path d="M377.296 254.395C409.788 254.395 442.382 252.615 474.671 254.801C523.384 258.157 567.52 274.378 601.792 311.345C618.826 329.854 626.199 353.142 630.064 377.448C635.572 414.01 634.053 451.288 625.589 487.281C614.809 535.078 586.436 565.943 540.876 582.52C513.708 592.256 485.019 597.061 456.162 596.707C453.975 596.707 449.806 593.859 449.806 592.283C449.806 568.553 450.213 544.824 451.026 521.095C451.101 517.266 452.507 513.582 455.003 510.677C457.5 507.773 460.93 505.829 464.704 505.179C471.274 503.018 478.129 501.852 485.044 501.722C524.909 503.095 540.977 479.196 546.062 447.822C548.212 434.272 548.741 420.514 547.638 406.838C546.164 387.923 535.74 372.566 522.774 359.397C511.799 348.104 498.645 339.157 484.109 333.1C469.573 327.043 453.959 324.001 438.212 324.159C414.924 323.904 391.686 324.159 368.448 324.159C357.262 324.159 351.973 328.176 351.516 339.413C350.651 359.193 350.346 379.024 350.906 398.804C351.261 411.008 357.668 415.686 370.025 416.042C380.021 415.826 390.019 416.404 399.923 417.771C411.666 420.165 422.29 426.366 430.15 435.412C438.01 444.458 442.667 455.844 443.399 467.806C444.111 479.094 438.314 485.603 426.314 485.755C405.974 485.755 386.144 485.755 366.058 485.755C360.363 485.755 358.889 483.467 358.838 478.179C358.838 462.924 358.482 447.67 357.719 432.415C356.957 417.161 348.414 401.652 327.21 403.177C315.617 403.991 303.972 403.177 292.328 403.177C286.887 403.177 284.904 401.398 284.955 395.855C284.955 353.6 284.955 311.345 284.955 269.09C284.955 258.361 289.837 252.513 304.735 252.513C329.041 252.513 349.431 254.395 373.737 254.395H377.296Z" fill="white"/>
<path d="M1362.59 245.446C1366.1 245.446 1368.33 244.887 1370.62 244.887C1389.64 244.887 1408.66 244.887 1427.67 244.887C1429.98 244.492 1432.35 245.001 1434.29 246.308C1436.23 247.614 1437.59 249.618 1438.1 251.904C1467.89 335.092 1497.84 418.144 1527.95 501.061C1528.96 503.96 1530.34 506.655 1532.47 511.231C1534.4 507.011 1535.57 504.773 1536.44 502.485C1566.13 420.653 1595.81 338.804 1625.47 256.938C1630 244.582 1629.9 244.531 1643.27 244.531H1703.02C1699.76 253.48 1697.02 261.362 1694.07 269.192C1654.41 373.228 1614.8 477.281 1575.24 581.351C1574.7 583.763 1573.31 585.899 1571.31 587.358C1569.32 588.818 1566.87 589.502 1564.4 589.283C1543.56 588.928 1522.66 588.978 1501.81 589.283C1499.35 589.548 1496.87 588.903 1494.85 587.47C1492.82 586.038 1491.4 583.916 1490.83 581.504C1452.22 479.807 1413.5 378.245 1374.69 276.82L1362.59 245.446Z" fill="white"/>
<path d="M1334.47 315.26C1317.23 310.938 1301.62 306.158 1285.65 303.107C1255.64 296.697 1224.59 296.958 1194.69 303.87C1165.7 311.192 1145.01 328.684 1135.5 357.007C1121.61 395.291 1121.26 437.182 1134.53 475.687C1147.96 513.671 1178.01 530.451 1215.89 534.926C1254.9 539.267 1294.39 534.301 1331.11 520.434C1332.08 520.129 1333.09 519.976 1335.03 519.569C1335.03 522.163 1335.69 524.349 1335.69 526.536C1335.69 541.333 1335.38 556.129 1335.69 570.926C1335.94 577.74 1333.76 581.401 1327.09 582.52C1304.52 586.333 1282.09 590.707 1259.42 593.91C1232.42 597.396 1205.01 595.966 1178.52 589.689C1113.12 575.147 1073.01 534.722 1059.23 469.229C1049.98 427.536 1052.2 384.12 1065.63 343.583C1084.9 286.022 1126.09 253.378 1185.23 243.564C1231.74 235.915 1279.38 239.028 1324.5 252.666C1331.72 254.801 1334.67 257.751 1334.67 265.886C1334.21 282.107 1334.47 298.48 1334.47 315.26Z" fill="white"/>
<path d="M1813.26 417.262V578.91C1813.26 589.435 1813.26 589.435 1802.68 589.486C1785.75 589.486 1768.87 589.486 1751.83 589.486C1745.63 589.486 1742.83 588.062 1742.83 581.147C1743.04 471.518 1743.04 361.905 1742.83 252.31C1742.83 246.31 1744.76 244.581 1750.61 244.683C1768 244.988 1785.49 245.14 1802.88 244.683C1810.77 244.683 1813.05 246.615 1813.05 254.852C1813.05 308.955 1813.26 363.109 1813.26 417.262Z" fill="white"/>
<path d="M344.956 506.858C344.956 530.096 344.956 553.333 344.956 576.571C345.108 579.476 344.651 582.381 343.613 585.099C342.575 587.816 340.98 590.286 338.93 592.35C336.88 594.415 334.421 596.027 331.711 597.084C329.001 598.141 326.099 598.619 323.193 598.487C315.007 598.487 306.82 598.487 298.633 598.487C295.914 598.675 293.186 598.278 290.633 597.322C288.08 596.367 285.761 594.875 283.833 592.947C281.906 591.02 280.414 588.701 279.458 586.148C278.503 583.595 278.106 580.867 278.294 578.148C278.294 555.978 278.294 533.757 278.294 511.587C278.294 496.027 272.752 490.536 257.446 490.536C235.276 490.536 213.106 490.536 190.885 490.536C185.038 490.536 183.004 488.705 183.106 482.807C183.462 466.688 183.106 450.569 183.106 434.45C183.106 421.483 189.106 415.839 202.123 415.839H325.736C339.261 415.839 344.651 420.924 344.753 435.263C344.753 459.06 344.753 482.807 344.753 506.451L344.956 506.858Z" fill="white"/>
</g>
<defs>
<clipPath id="clip0_2_2">
<rect width="2014.06" height="359.6" fill="white" transform="translate(183.055 238.988)"/>
</clipPath>
</defs>
</svg>
